<svg width="1071" height="844" viewBox="0 0 1071 844" fill="none" xmlns="http://www.w3.org/2000/svg">
<g filter="url(#filter0_di_326_6)">
<path d="M953 462.5C980.338 462.5 1002.5 440.338 1002.5 413C1002.5 385.662 980.338 363.5 953 363.5V462.5ZM60.9982 377.998C41.6673 397.329 41.6673 428.671 60.9982 448.002L376.014 763.018C395.345 782.349 426.687 782.349 446.018 763.018C465.349 743.687 465.349 712.345 446.018 693.014L166.004 413L446.018 132.986C465.349 113.655 465.349 82.3131 446.018 62.9821C426.687 43.6512 395.345 43.6512 376.014 62.9821L60.9982 377.998ZM953 363.5L96 363.5V462.5L953 462.5V363.5Z" fill="#FF0000"/>
</g>
<defs>
<filter id="filter0_di_326_6" x="0.5" y="0.483932" width="1070" height="843.032" filterUnits="userSpaceOnUse" color-interpolation-filters="sRGB">
<feFlood flood-opacity="0" result="BackgroundImageFix"/>
<feColorMatrix in="SourceAlpha" type="matrix" values="0 0 0 0 0 0 0 0 0 0 0 0 0 0 0 0 0 0 127 0" result="hardAlpha"/>
<feOffset dx="11" dy="9"/>
<feGaussianBlur stdDeviation="28.5"/>
<feComposite in2="hardAlpha" operator="out"/>
<feColorMatrix type="matrix" values="0 0 0 0 1 0 0 0 0 0.290741 0 0 0 0 0.290741 0 0 0 1 0"/>
<feBlend mode="normal" in2="BackgroundImageFix" result="effect1_dropShadow_326_6"/>
<feBlend mode="normal" in="SourceGraphic" in2="effect1_dropShadow_326_6" result="shape"/>
<feColorMatrix in="SourceAlpha" type="matrix" values="0 0 0 0 0 0 0 0 0 0 0 0 0 0 0 0 0 0 127 0" result="hardAlpha"/>
<feOffset dx="14" dy="24"/>
<feGaussianBlur stdDeviation="13.5"/>
<feComposite in2="hardAlpha" operator="arithmetic" k2="-1" k3="1"/>
<feColorMatrix type="matrix" values="0 0 0 0 1 0 0 0 0 0.72 0 0 0 0 0 0 0 0 0.55 0"/>
<feBlend mode="normal" in2="shape" result="effect2_innerShadow_326_6"/>
</filter>
</defs>
</svg>
